<svg height="580" width="580" xmlns="http://www.w3.org/2000/svg"><path d="m66.275 1.768c-41.335 0-64.571 21.371-64.571 65.036v450.123c0 40.844 20.894 62.229 62.192 62.229h452.024c41.307 0 62.229-20.316 62.229-62.229v-450.123c0-42.601-20.922-65.036-63.522-65.036-.003 0-448.494-.143-448.352 0z" fill="#111" stroke="#eee" stroke-width="3.408"/><g fill="#fff"><path d="m277.59007 329.16561c-17.15458 0-26.25471 9.36528-30.45587 20.32768l-22.30101 57.58322c-8.84053 1.13359-24.5121 11.51073-24.5121 31.16911v73.22721h21.70664v23.41845c0 28.81157 40.77423 28.47225 40.77424 0v-23.41845h73.34609.02381 73.34605v23.41845c0 28.47225 40.77405 28.81157 40.77428 0v-23.41845h21.7066v-73.22721c0-19.65837-15.67146-30.03552-24.51214-31.16911l-22.32474-57.58322c-4.20115-10.9624-13.30119-20.32768-30.4559-20.32768h-31.52567-53.68419zm-.26154 20.96961h58.77198.04755.02381 58.79571c7.35162.06846 10.50021 4.66599 12.60078 11.03162l16.80894 45.31529h-88.20543-.02381-.04755-88.18173l16.80897-45.31529c2.10059-6.36563 5.24839-10.96316 12.60078-11.03162zm-34.25986 78.3864c10.40245 0 18.82985 8.67922 18.82985 19.40045-.00001 10.72199-8.4274 19.42423-18.82985 19.42423-10.40169 0-18.82986-8.70225-18.82986-19.42423 0-10.72121 8.42817-19.40045 18.82986-19.40045zm186.18255 0c10.40246 0 18.82993 8.67924 18.82986 19.40045 0 10.72198-8.4274 19.42423-18.82986 19.42423-10.40168 0-18.85367-8.70224-18.85367-19.42423 0-10.72123 8.45199-19.40045 18.85367-19.40045z"/><path d="m47.878933 429.0412v-369.875375h139.523247c24.55723.000369 43.3117 1.17778 56.26345 3.532234 18.16552 3.027992 33.38775 8.788892 45.66674 17.282717 12.27842 8.494522 22.16026 20.394774 29.64553 35.700794 7.48466 15.30665 11.22714 32.12679 11.22746 50.46049-.00032 31.45393-10.00831 58.07181-30.02399 79.85372-20.01626 21.78227-56.17958 32.67332-108.49005 32.67317h-94.865714v150.37225zm48.946673-194.02058h95.622624c31.62169.0002 54.07658-5.88685 67.36475-17.66117 13.28766-11.77389 19.93162-28.34173 19.93189-49.70358-.00027-15.47427-3.91095-28.72013-11.73206-39.73763-7.82163-11.0169-18.12397-18.29161-30.90705-21.82416-8.2421-2.1863-23.46433-3.27961-45.66674-3.27993h-94.613414z"/></g></svg>